<svg viewBox="0 0 360 360" role="img" aria-label="Funnel chart: Pipeline by stage"><text x="12" y="23.4" font-size="15.6" font-weight="600" fill="#e6e3dd">Pipeline by stage</text><text x="12" y="42.9" font-size="13.65" fill="#9aa2ad">opportunities, current quarter</text><polygon points="98,52 288,52 243.67,108 142.33,108" fill="#4cc2ab"/><text x="80" y="84" font-size="14.3" fill="#9aa2ad" text-anchor="end">Leads</text><text x="300" y="66" font-size="15.6" font-weight="600" fill="#e6e3dd">1,200</text><polygon points="142.33,112 243.67,112 217.54,168 168.46,168" fill="#7aa7e0"/><text x="80" y="144" font-size="14.3" fill="#9aa2ad" text-anchor="end">Qualified</text><text x="255.67" y="126" font-size="15.6" font-weight="600" fill="#e6e3dd">640<tspan font-size="13" font-weight="400" fill="#9aa2ad"> · 53%</tspan></text><polygon points="168.46,172 217.54,172 205,228 181,228" fill="#e0a44a"/><text x="80" y="204" font-size="14.3" fill="#9aa2ad" text-anchor="end">Proposal</text><text x="229.54" y="186" font-size="15.6" font-weight="600" fill="#e6e3dd">310<tspan font-size="13" font-weight="400" fill="#9aa2ad"> · 26%</tspan></text><polygon points="181,232 205,232 205,288 181,288" fill="#e08585"/><text x="80" y="264" font-size="14.3" fill="#9aa2ad" text-anchor="end">Negotiation</text><text x="217" y="246" font-size="15.6" font-weight="600" fill="#e6e3dd">150<tspan font-size="13" font-weight="400" fill="#9aa2ad"> · 13%</tspan></text><polygon points="181,292 205,292 205,348 181,348" fill="#4cc2ab"/><text x="80" y="324" font-size="14.3" fill="#9aa2ad" text-anchor="end">Closed-won</text><text x="217" y="306" font-size="15.6" font-weight="600" fill="#e6e3dd">72<tspan font-size="13" font-weight="400" fill="#9aa2ad"> · 6%</tspan></text></svg>